<svg xmlns="http://www.w3.org/2000/svg" viewBox="0 0 750 422.36"><defs><style>.cls-1{fill:#f5f5f5;}.cls-2{fill:#e6e6e6;}.cls-3{fill:#f0f0f0;}.cls-13,.cls-15,.cls-4{fill:#fff;}.cls-5{fill:#e0e0e0;}.cls-6{fill:#ebebeb;}.cls-7{fill:#263238;}.cls-8{fill:#fdbbb5;}.cls-9{fill:#e97a75;}.cls-10{fill:#407bff;}.cls-11,.cls-14{opacity:0.3;}.cls-12,.cls-13{opacity:0.2;}.cls-15{opacity:0.1;}</style></defs><g id="Background_complete" data-name="Background complete"><rect class="cls-1" x="632.38" y="77.57" width="42.28" height="17.56"/><rect class="cls-2" x="534.1" y="19.93" width="109.68" height="140.72"/><rect class="cls-3" x="509.56" y="19.93" width="128.83" height="140.72"/><rect class="cls-4" x="521.44" y="32.43" width="104.52" height="115.72"/><rect class="cls-3" x="555.77" y="69.4" width="37.73" height="41.77"/><path class="cls-5" d="M673.84,301.37H493.1a5.87,5.87,0,0,1-5.87-5.86V32.24a5.87,5.87,0,0,1,5.87-5.87H673.84a5.87,5.87,0,0,1,5.86,5.87V295.51A5.87,5.87,0,0,1,673.84,301.37ZM493.1,26.62a5.62,5.62,0,0,0-5.62,5.62V295.51a5.62,5.62,0,0,0,5.62,5.61H673.84a5.61,5.61,0,0,0,5.61-5.61V32.24a5.62,5.62,0,0,0-5.61-5.62Z" transform="translate(-0.11 -26.37)"/><path class="cls-5" d="M465.41,301.37H284.67a5.87,5.87,0,0,1-5.86-5.86V32.24a5.87,5.87,0,0,1,5.86-5.87H465.41a5.87,5.87,0,0,1,5.87,5.87V295.51A5.87,5.87,0,0,1,465.41,301.37ZM284.67,26.62a5.62,5.62,0,0,0-5.61,5.62V295.51a5.61,5.61,0,0,0,5.61,5.61H465.41a5.62,5.62,0,0,0,5.62-5.61V32.24a5.62,5.62,0,0,0-5.62-5.62Z" transform="translate(-0.11 -26.37)"/><path class="cls-5" d="M257.12,301.37H76.37a5.87,5.87,0,0,1-5.86-5.86V32.24a5.87,5.87,0,0,1,5.86-5.87H257.12A5.87,5.87,0,0,1,263,32.24V295.51A5.87,5.87,0,0,1,257.12,301.37ZM76.37,26.62a5.62,5.62,0,0,0-5.61,5.62V295.51a5.62,5.62,0,0,0,5.61,5.61H257.12a5.61,5.61,0,0,0,5.61-5.61V32.24a5.62,5.62,0,0,0-5.61-5.62Z" transform="translate(-0.11 -26.37)"/><rect class="cls-5" y="295.33" width="750" height="0.12"/><rect class="cls-6" x="653.52" y="319.17" width="55.73" height="0.42"/><rect class="cls-6" x="494.94" y="323.73" width="14.63" height="0.42"/><rect class="cls-6" x="40.54" y="306.37" width="72.67" height="0.42"/><rect class="cls-6" x="128.19" y="306.37" width="10.66" height="0.42"/><rect class="cls-6" x="173.48" y="313.47" width="157.61" height="0.42"/><rect class="cls-5" x="36.7" y="187.47" width="42.28" height="17.56"/><rect class="cls-2" x="60.2" y="170.04" width="42.28" height="17.56"/><rect class="cls-1" x="61.6" y="204.7" width="42.28" height="17.56"/><rect class="cls-5" x="339.68" y="31.31" width="42.28" height="17.56"/><rect class="cls-1" x="364.58" y="48.54" width="42.28" height="17.56"/><rect class="cls-5" x="186.47" y="232.84" width="42.28" height="17.56"/><rect class="cls-1" x="211.37" y="250.07" width="42.28" height="17.56"/><rect class="cls-5" x="650.86" y="174.87" width="42.28" height="17.56"/><rect class="cls-1" x="675.75" y="192.1" width="42.28" height="17.56"/><rect class="cls-1" x="145.5" y="40.63" width="42.28" height="17.56"/><rect class="cls-1" x="543.92" y="196.15" width="42.28" height="17.56"/></g><g id="Shadows"><path class="cls-1" d="M571.74,376.56c0,6.05-76.93,10.95-171.83,10.95s-171.82-4.9-171.82-10.95S305,365.62,399.91,365.62,571.74,370.52,571.74,376.56Z" transform="translate(-0.11 -26.37)"/><path class="cls-1" d="M208.17,376.56c0,6.05-40.35,10.95-90.13,10.95s-90.13-4.9-90.13-10.95S68.27,365.62,118,365.62,208.17,370.52,208.17,376.56Z" transform="translate(-0.11 -26.37)"/><path class="cls-1" d="M729.79,361.24c0,6.05-31.95,10.95-71.36,10.95s-71.37-4.9-71.37-10.95,32-10.94,71.37-10.94S729.79,355.2,729.79,361.24Z" transform="translate(-0.11 -26.37)"/></g><g id="Table"><path class="cls-7" d="M723.8,346.33H32.92a.37.37,0,0,1-.37-.37.38.38,0,0,1,.37-.38H723.8a.38.38,0,0,1,.37.38A.37.37,0,0,1,723.8,346.33Z" transform="translate(-0.11 -26.37)"/></g><g id="Plant"><path class="cls-8" d="M614.12,234.12a21,21,0,0,0,.74-10.22,20.46,20.46,0,0,0-4.22,9.39,29.32,29.32,0,0,0-1.53-6.17,9.77,9.77,0,0,0-3.94-4.87,20.05,20.05,0,0,0,1.56,13.62,15.22,15.22,0,0,0-8.8-6.89,13.59,13.59,0,0,0,9.31,10.85l3.43-.44A12.53,12.53,0,0,0,621,227.53,15.9,15.9,0,0,0,614.12,234.12Z" transform="translate(-0.11 -26.37)"/><path class="cls-9" d="M615.22,237.24a25.86,25.86,0,0,0,.92-12.65,25.37,25.37,0,0,0-5.22,11.62,37,37,0,0,0-1.89-7.64,12.11,12.11,0,0,0-4.87-6,24.7,24.7,0,0,0,1.93,16.85,19,19,0,0,0-10.89-8.54,16.81,16.81,0,0,0,11.52,13.43l4.24-.54a15.48,15.48,0,0,0,12.76-14.67A19.62,19.62,0,0,0,615.22,237.24Z" transform="translate(-0.11 -26.37)"/><path class="cls-8" d="M674.88,258a11.45,11.45,0,0,0,4.25-5.39,14.29,14.29,0,0,0-6.53,3.61,14.74,14.74,0,0,0,1.1-4,6,6,0,0,0-1.15-4.2,10.42,10.42,0,0,0-3.78,8.15,11.15,11.15,0,0,0-4-7.18c-1.29,3-.08,6.93,3,9.57l2.7,1.06a12.78,12.78,0,0,0,6.87.49,8.5,8.5,0,0,0,5.09-3.13A14.39,14.39,0,0,0,674.88,258Z" transform="translate(-0.11 -26.37)"/><path class="cls-9" d="M674.57,260.14a14.28,14.28,0,0,0,5.26-6.67,17.57,17.57,0,0,0-8.08,4.45,18.2,18.2,0,0,0,1.36-5,7.45,7.45,0,0,0-1.43-5.2A12.89,12.89,0,0,0,667,257.86a13.78,13.78,0,0,0-5-8.89c-1.59,3.76-.09,8.57,3.68,11.84l3.34,1.31a15.83,15.83,0,0,0,8.5.61,10.49,10.49,0,0,0,6.29-3.88A17.77,17.77,0,0,0,674.57,260.14Z" transform="translate(-0.11 -26.37)"/><path class="cls-10" d="M657.58,243.19c-.16-6.36-.59-13-3.72-18.51s-9.75-9.62-15.85-7.81c-7.45,2.2-10.18,11.16-11.54,18.81a441.8,441.8,0,0,0-6.82,76.06l34.77-3.08C656.27,286.87,658.12,265,657.58,243.19Z" transform="translate(-0.11 -26.37)"/><path class="cls-7" d="M636.17,217.91a132.6,132.6,0,0,0-4.24,23c-2.54,23.29-2.63,46.76-4.22,70.12.89-15.59,1.22-31.2,2.12-46.79,1.1-15.53,1.87-31.33,6.34-46.32Z" transform="translate(-0.11 -26.37)"/><path class="cls-7" d="M642.23,216.73c-2.33,31.06-3,62.22-3.88,93.35.53-31.13,1.24-62.32,3.88-93.35Z" transform="translate(-0.11 -26.37)"/><path class="cls-7" d="M649.24,219.35c1.07,15,1.57,29.94,1.73,44.93,0,15-.12,30-2.24,44.88,1.92-14.87,2.06-29.91,2-44.88s-.61-30-1.48-44.93Z" transform="translate(-0.11 -26.37)"/><g class="cls-11"><path d="M657.58,243.19c-.16-6.36-.59-13-3.72-18.51s-9.75-9.62-15.85-7.81c-7.45,2.2-10.18,11.16-11.54,18.81a441.8,441.8,0,0,0-6.82,76.06l34.77-3.08C656.27,286.87,658.12,265,657.58,243.19Z" transform="translate(-0.11 -26.37)"/></g><path class="cls-10" d="M626.2,260c-.75-6.9-2.49-14.86-8.75-17.86s-14.38,1.2-17.87,7.38-3.67,13.61-3.76,20.71q-.32,23.5-.62,47l32-4.81A294.42,294.42,0,0,0,626.2,260Z" transform="translate(-0.11 -26.37)"/><path class="cls-7" d="M606.69,243.12c-5.12,23.93-3.63,48.62-3.39,72.92-.56-24.28-2-49.06,3.39-72.92Z" transform="translate(-0.11 -26.37)"/><path class="cls-7" d="M611,243c.24,23.8.85,47.75,2.21,71.52C611.56,290.76,611,266.88,611,243Z" transform="translate(-0.11 -26.37)"/><path class="cls-7" d="M617.45,242.15c3.92,23.43,6.37,47.32,5.09,71.09,1-23.78-1.48-47.61-5.09-71.09Z" transform="translate(-0.11 -26.37)"/><path class="cls-10" d="M676.13,276.34c.66-5.41.74-11.82-3.52-15.23s-11.21-1.63-15,2.47-5.23,9.77-6.56,15.18q-4.43,17.94-8.84,35.87l25.35,2A231,231,0,0,0,676.13,276.34Z" transform="translate(-0.11 -26.37)"/><path class="cls-7" d="M664.21,260c-8.15,17.41-11.39,36.56-15.57,55.19,3.86-18.68,7.14-37.91,15.57-55.19Z" transform="translate(-0.11 -26.37)"/><path class="cls-7" d="M667.54,260.65c-4,18.3-7.8,36.66-11,55.11,2.92-18.5,6.71-36.89,11-55.11Z" transform="translate(-0.11 -26.37)"/><path class="cls-7" d="M672.61,261.11c-1.13,18.64-3.5,37.36-8.75,55.31,4.95-18,7.31-36.69,8.75-55.31Z" transform="translate(-0.11 -26.37)"/><path class="cls-7" d="M588.36,280.31h92.79a0,0,0,0,1,0,0V295.2A45.11,45.11,0,0,1,636,340.31h-2.57a45.11,45.11,0,0,1-45.11-45.11V280.31A0,0,0,0,1,588.36,280.31Z"/><path class="cls-10" d="M588.52,322.75H681.2a.25.25,0,0,0,0-.5H588.52a.25.25,0,0,0,0,.5Z" transform="translate(-0.11 -26.37)"/></g><g id="Keyboard"><path class="cls-7" d="M229.85,448.58c-5.87,0-10.25-4.66-9.07-9.62,3.51-14.67,10.28-41.27,12.52-50a4.19,4.19,0,0,1,4.19-2.89l300.27.5a5.51,5.51,0,0,1,5.46,3.73l13.24,48.2c1.41,5.12-3.16,10-9.26,9.88-21-.41-63.16-1.25-75.8-1.73-17-.66-64.74,1.63-87.08,2C365.82,448.83,264.2,448.65,229.85,448.58Z" transform="translate(-0.11 -26.37)"/><g class="cls-12"><path class="cls-4" d="M517,416l-.69-3.15a1.72,1.72,0,0,0-1.73-1.23h-8.23a1.61,1.61,0,0,0-1.74,1.75l.57,3.14a1.7,1.7,0,0,0,1.74,1.28h8.35A1.6,1.6,0,0,0,517,416Z" transform="translate(-0.11 -26.37)"/><path class="cls-4" d="M503.42,416l-.57-3.14a1.69,1.69,0,0,0-1.74-1.28H494a1.61,1.61,0,0,0-1.74,1.69l.42,3.14a1.67,1.67,0,0,0,1.74,1.34h7.3A1.6,1.6,0,0,0,503.42,416Z" transform="translate(-0.11 -26.37)"/><path class="cls-4" d="M502.49,419.21H495a1.61,1.61,0,0,0-1.74,1.69l.42,3.14a1.67,1.67,0,0,0,1.74,1.34h7.66a1.6,1.6,0,0,0,1.73-1.75l-.57-3.14A1.7,1.7,0,0,0,502.49,419.21Z" transform="translate(-0.11 -26.37)"/><path class="cls-4" d="M533.29,428a1.74,1.74,0,0,0-1.71-1.15H520l-.63.11,0-.11H506l-.6.08v-.08H496a1.62,1.62,0,0,0-1.75,1.69l.46,3.4a1.69,1.69,0,0,0,1.77,1.35l36-.4a1.58,1.58,0,0,0,1.69-1.88Z" transform="translate(-0.11 -26.37)"/><path class="cls-4" d="M493.37,410.2h6.94a1.6,1.6,0,0,0,1.73-1.75l-.42-2.33a1.71,1.71,0,0,0-1.74-1.28h-6.82a1.61,1.61,0,0,0-1.74,1.69l.31,2.33A1.68,1.68,0,0,0,493.37,410.2Z" transform="translate(-0.11 -26.37)"/><path class="cls-4" d="M505.53,410.2h8.06a1.59,1.59,0,0,0,1.73-1.8l-.51-2.32a1.7,1.7,0,0,0-1.73-1.24h-8a1.61,1.61,0,0,0-1.74,1.75l.42,2.33A1.7,1.7,0,0,0,505.53,410.2Z" transform="translate(-0.11 -26.37)"/><path class="cls-4" d="M517,402.81h6.58a1.58,1.58,0,0,0,1.71-1.88l-.42-1.45a1.73,1.73,0,0,0-1.7-1.15h-6.48a1.61,1.61,0,0,0-1.73,1.8l.32,1.44A1.7,1.7,0,0,0,517,402.81Z" transform="translate(-0.11 -26.37)"/><path class="cls-4" d="M527.61,408.32l-.68-2.33a1.73,1.73,0,0,0-1.7-1.15h-6.89a1.61,1.61,0,0,0-1.73,1.8l.51,2.33a1.72,1.72,0,0,0,1.73,1.23h7A1.59,1.59,0,0,0,527.61,408.32Z" transform="translate(-0.11 -26.37)"/><path class="cls-4" d="M503.9,402.81h7.81a1.61,1.61,0,0,0,1.73-1.8l-.32-1.44a1.7,1.7,0,0,0-1.72-1.24h-7.76a1.61,1.61,0,0,0-1.74,1.75l.27,1.45A1.69,1.69,0,0,0,503.9,402.81Z" transform="translate(-0.11 -26.37)"/><path class="cls-4" d="M528.86,402.81h5.61a1.57,1.57,0,0,0,1.68-1.95l-.5-1.45a1.76,1.76,0,0,0-1.69-1.08h-5.51a1.59,1.59,0,0,0-1.71,1.89l.42,1.44A1.73,1.73,0,0,0,528.86,402.81Z" transform="translate(-0.11 -26.37)"/><path class="cls-4" d="M536.34,432.64l8.77.06a1.56,1.56,0,0,0,1.66-1.95l-6.3-18.05a1.75,1.75,0,0,0-1.68-1.08h-6.28a1.59,1.59,0,0,0-1.71,1.88l5.54,19.14Z" transform="translate(-0.11 -26.37)"/><path class="cls-4" d="M500.41,401.06l-.26-1.45a1.7,1.7,0,0,0-1.74-1.28h-6.54a1.61,1.61,0,0,0-1.74,1.69l.19,1.45a1.7,1.7,0,0,0,1.75,1.34h6.61A1.6,1.6,0,0,0,500.41,401.06Z" transform="translate(-0.11 -26.37)"/><path class="cls-4" d="M453.19,409h6.93a1.6,1.6,0,0,0,1.73-1.75l-.42-2.33a1.69,1.69,0,0,0-1.74-1.28h-6.82a1.61,1.61,0,0,0-1.74,1.69l.31,2.33A1.69,1.69,0,0,0,453.19,409Z" transform="translate(-0.11 -26.37)"/><path class="cls-4" d="M465.34,409h8.07a1.59,1.59,0,0,0,1.72-1.8l-.51-2.33a1.7,1.7,0,0,0-1.72-1.23h-8a1.61,1.61,0,0,0-1.74,1.75l.43,2.33A1.7,1.7,0,0,0,465.34,409Z" transform="translate(-0.11 -26.37)"/><path class="cls-4" d="M477.17,402.26h6.58a1.59,1.59,0,0,0,1.71-1.88l-.42-1.45a1.74,1.74,0,0,0-1.71-1.14h-6.47a1.6,1.6,0,0,0-1.73,1.79l.32,1.45A1.7,1.7,0,0,0,477.17,402.26Z" transform="translate(-0.11 -26.37)"/><path class="cls-4" d="M487.42,407.16l-.67-2.33a1.73,1.73,0,0,0-1.71-1.15h-6.89a1.6,1.6,0,0,0-1.73,1.8l.51,2.32a1.71,1.71,0,0,0,1.73,1.24h7A1.58,1.58,0,0,0,487.42,407.16Z" transform="translate(-0.11 -26.37)"/><path class="cls-4" d="M464.11,402.26h7.81a1.6,1.6,0,0,0,1.73-1.8l-.32-1.44a1.7,1.7,0,0,0-1.73-1.23h-7.75a1.61,1.61,0,0,0-1.74,1.75l.26,1.44A1.7,1.7,0,0,0,464.11,402.26Z" transform="translate(-0.11 -26.37)"/><path class="cls-4" d="M460.62,400.51l-.26-1.44a1.69,1.69,0,0,0-1.74-1.28h-6.54a1.61,1.61,0,0,0-1.74,1.69l.19,1.44a1.69,1.69,0,0,0,1.75,1.34h6.61A1.6,1.6,0,0,0,460.62,400.51Z" transform="translate(-0.11 -26.37)"/><path class="cls-4" d="M532,423.5l-.91-3.14a1.73,1.73,0,0,0-1.7-1.15h-7.9a1.61,1.61,0,0,0-1.73,1.8l.69,3.14a1.7,1.7,0,0,0,1.73,1.23h8.11A1.58,1.58,0,0,0,532,423.5Z" transform="translate(-0.11 -26.37)"/><path class="cls-4" d="M529.8,415.91l-.91-3.14a1.71,1.71,0,0,0-1.7-1.15h-7.37a1.59,1.59,0,0,0-1.72,1.8l.68,3.14a1.72,1.72,0,0,0,1.73,1.23h7.59A1.58,1.58,0,0,0,529.8,415.91Z" transform="translate(-0.11 -26.37)"/><path class="cls-4" d="M538.91,408.25l-.88-2.49a1.5,1.5,0,0,0-1.44-.92h-6a1.59,1.59,0,0,0-1.71,1.89l.68,2.32a1.71,1.71,0,0,0,1.7,1.15h6A1.57,1.57,0,0,0,538.91,408.25Z" transform="translate(-0.11 -26.37)"/><path class="cls-4" d="M518.65,423.59l-.69-3.14a1.7,1.7,0,0,0-1.72-1.24h-8.52A1.61,1.61,0,0,0,506,421l.57,3.14a1.7,1.7,0,0,0,1.74,1.28h8.63A1.59,1.59,0,0,0,518.65,423.59Z" transform="translate(-0.11 -26.37)"/><path class="cls-4" d="M476.57,423.75l-.69-3.14a1.7,1.7,0,0,0-1.72-1.24h-8.24a1.61,1.61,0,0,0-1.73,1.75l.57,3.15a1.7,1.7,0,0,0,1.74,1.28h8.35A1.59,1.59,0,0,0,476.57,423.75Z" transform="translate(-0.11 -26.37)"/><path class="cls-4" d="M462.08,427h-7.5a1.62,1.62,0,0,0-1.75,1.69l.42,3.14a1.7,1.7,0,0,0,1.75,1.34h7.65a1.61,1.61,0,0,0,1.74-1.75l-.57-3.14A1.7,1.7,0,0,0,462.08,427Z" transform="translate(-0.11 -26.37)"/><path class="cls-4" d="M491.59,431.26l-.91-3.15A1.74,1.74,0,0,0,489,427h-7.9a1.59,1.59,0,0,0-1.72,1.79l.68,3.14a1.72,1.72,0,0,0,1.73,1.24h8.12A1.59,1.59,0,0,0,491.59,431.26Z" transform="translate(-0.11 -26.37)"/><path class="cls-4" d="M478.24,431.34l-.69-3.14a1.7,1.7,0,0,0-1.73-1.23H467.3a1.6,1.6,0,0,0-1.73,1.75l.57,3.14a1.69,1.69,0,0,0,1.74,1.28h8.63A1.61,1.61,0,0,0,478.24,431.34Z" transform="translate(-0.11 -26.37)"/></g><g class="cls-12"><path class="cls-4" d="M285,422.45l.25-3.54a1.41,1.41,0,0,0-1.53-1.4h-9a1.47,1.47,0,0,0-1.53,1.19l-.41,3.53a1.41,1.41,0,0,0,1.52,1.45h9.2A1.45,1.45,0,0,0,285,422.45Z" transform="translate(-0.11 -26.37)"/><path class="cls-4" d="M289.29,408.5h7.19a1.44,1.44,0,0,0,1.53-1.3l.05-2.71a1.43,1.43,0,0,0-1.53-1.35h-7a1.45,1.45,0,0,0-1.52,1.24l-.2,2.72A1.43,1.43,0,0,0,289.29,408.5Z" transform="translate(-0.11 -26.37)"/><path class="cls-4" d="M276.05,408.5h8.52a1.45,1.45,0,0,0,1.53-1.24l.19-2.71a1.42,1.42,0,0,0-1.52-1.41h-8.4a1.47,1.47,0,0,0-1.52,1.19l-.32,2.72A1.41,1.41,0,0,0,276.05,408.5Z" transform="translate(-0.11 -26.37)"/><path class="cls-4" d="M300.47,408.5h10.75a.77.77,0,0,0,.82-.71v-3.94a.77.77,0,0,0-.82-.71H300.55a.78.78,0,0,0-.83.7l-.07,3.94A.76.76,0,0,0,300.47,408.5Z" transform="translate(-0.11 -26.37)"/><path class="cls-4" d="M342.59,408.5H353.8a.78.78,0,0,0,.83-.71v-3.94a.78.78,0,0,0-.83-.71H342.59a.77.77,0,0,0-.82.71v3.94A.77.77,0,0,0,342.59,408.5Z" transform="translate(-0.11 -26.37)"/><path class="cls-4" d="M329.12,408.5H339.3a.78.78,0,0,0,.83-.71v-3.94a.78.78,0,0,0-.83-.71H329.12a.77.77,0,0,0-.82.71v3.94A.77.77,0,0,0,329.12,408.5Z" transform="translate(-0.11 -26.37)"/><path class="cls-4" d="M357.1,408.5h11.4a.78.78,0,0,0,.83-.7l.07-3.94a.77.77,0,0,0-.82-.72H357.1a.78.78,0,0,0-.83.71v3.94A.78.78,0,0,0,357.1,408.5Z" transform="translate(-0.11 -26.37)"/><path class="cls-4" d="M314.51,408.5h11.32a.77.77,0,0,0,.82-.71v-3.94a.77.77,0,0,0-.82-.71H314.51a.77.77,0,0,0-.82.71v3.94A.77.77,0,0,0,314.51,408.5Z" transform="translate(-0.11 -26.37)"/><path class="cls-4" d="M395.72,417.72H385.58a1.23,1.23,0,0,0-1.3,1.14l.08,3.94a1.22,1.22,0,0,0,1.3,1.1h10.22a1.22,1.22,0,0,0,1.3-1.16L397,418.8A1.22,1.22,0,0,0,395.72,417.72Z" transform="translate(-0.11 -26.37)"/><path class="cls-4" d="M411.63,417.72H400a1.22,1.22,0,0,0-1.3,1.16l.17,3.94a1.22,1.22,0,0,0,1.29,1.08H412a1.21,1.21,0,0,0,1.3-1.21l-.35-3.93A1.25,1.25,0,0,0,411.63,417.72Z" transform="translate(-0.11 -26.37)"/><path class="cls-4" d="M296.25,417.51h-7.8a1.45,1.45,0,0,0-1.53,1.24l-.25,3.53a1.41,1.41,0,0,0,1.53,1.4h8a1.43,1.43,0,0,0,1.53-1.29l.07-3.54A1.43,1.43,0,0,0,296.25,417.51Z" transform="translate(-0.11 -26.37)"/><path class="cls-4" d="M398.35,411.08l.16,3.93a1.23,1.23,0,0,0,1.3,1.08h11.5a1.2,1.2,0,0,0,1.29-1.2l-.35-3.94a1.23,1.23,0,0,0-1.29-1H399.64A1.21,1.21,0,0,0,398.35,411.08Z" transform="translate(-0.11 -26.37)"/><path class="cls-4" d="M369.13,418.23a.79.79,0,0,0-.83-.72H357.1a.78.78,0,0,0-.83.71V423a.77.77,0,0,0,.83.71h12.15a1.75,1.75,0,0,1-.21-.75Z" transform="translate(-0.11 -26.37)"/><path class="cls-4" d="M382.63,418.21a.78.78,0,0,0-.82-.7H371.6a.78.78,0,0,0-.83.7l-.09,4.75a1.82,1.82,0,0,1-.22.72H381.9a.76.76,0,0,0,.82-.72Z" transform="translate(-0.11 -26.37)"/><path class="cls-4" d="M339.3,417.51H329.12a.77.77,0,0,0-.82.71v4.72a.77.77,0,0,1-.82.71h0a.77.77,0,0,1-.83-.71v-4.72a.77.77,0,0,0-.82-.71H314.51a.77.77,0,0,0-.82.71v4.72a.77.77,0,0,1-.83.71h0a.77.77,0,0,1-.82-.71v-4.72a.77.77,0,0,0-.82-.71h-11a.78.78,0,0,0-.83.7l-.09,4.75a.76.76,0,0,0,.82.72H339.3a.77.77,0,0,0,.83-.71v-4.75A.78.78,0,0,0,339.3,417.51Z" transform="translate(-0.11 -26.37)"/><path class="cls-4" d="M353.8,417.51H342.59a.77.77,0,0,0-.82.71V423a.77.77,0,0,0,.82.71H353.8a.77.77,0,0,0,.83-.71v-4.75A.78.78,0,0,0,353.8,417.51Z" transform="translate(-0.11 -26.37)"/><path class="cls-4" d="M284.28,409.92h-8.7a1.46,1.46,0,0,0-1.52,1.19l-.41,3.53a1.4,1.4,0,0,0,1.52,1.45H284a1.45,1.45,0,0,0,1.52-1.24l.26-3.53A1.43,1.43,0,0,0,284.28,409.92Z" transform="translate(-0.11 -26.37)"/><path class="cls-4" d="M385.36,408.71h9.89a1.22,1.22,0,0,0,1.3-1.16l-.13-3.11a1.23,1.23,0,0,0-1.3-1.08H385.3a1.22,1.22,0,0,0-1.3,1.13l.06,3.12A1.23,1.23,0,0,0,385.36,408.71Z" transform="translate(-0.11 -26.37)"/><path class="cls-4" d="M372.28,408.5h8.84a1.22,1.22,0,0,0,1.3-1.14l-.06-3.12a1.23,1.23,0,0,0-1.3-1.1h-8.72a1.22,1.22,0,0,0-1.3,1.1l-.06,3.12A1.21,1.21,0,0,0,372.28,408.5Z" transform="translate(-0.11 -26.37)"/><path class="cls-4" d="M311.22,409.92H300.41a.77.77,0,0,0-.82.7l-.09,4.75a.76.76,0,0,0,.82.72h10.9a.77.77,0,0,0,.82-.71v-4.75A.77.77,0,0,0,311.22,409.92Z" transform="translate(-0.11 -26.37)"/><path class="cls-4" d="M288.74,416.09h7.59a1.44,1.44,0,0,0,1.53-1.3l.07-3.53a1.42,1.42,0,0,0-1.53-1.34H289a1.45,1.45,0,0,0-1.53,1.24l-.26,3.53A1.43,1.43,0,0,0,288.74,416.09Z" transform="translate(-0.11 -26.37)"/><path class="cls-4" d="M428.05,401.72h16.63a1.45,1.45,0,0,0,1.57-1.51l-.23-1.75a1.5,1.5,0,0,0-1.58-1.2l-16.65.09a1.44,1.44,0,0,0-1.55,1.53l.25,1.66A1.51,1.51,0,0,0,428.05,401.72Z" transform="translate(-0.11 -26.37)"/><path class="cls-4" d="M425.1,409.92h-9.89a1.2,1.2,0,0,0-1.29,1.2l.35,3.94a1.23,1.23,0,0,0,1.29,1h10.13a1.19,1.19,0,0,0,1.29-1.26l-.59-3.94A1.26,1.26,0,0,0,425.1,409.92Z" transform="translate(-0.11 -26.37)"/><path class="cls-4" d="M431.11,423.68h16.76a1.19,1.19,0,0,0,1.29-1.24l-.51-3.94a1.25,1.25,0,0,0-1.29-1H430.52a1.19,1.19,0,0,0-1.29,1.26l.59,3.94A1.25,1.25,0,0,0,431.11,423.68Z" transform="translate(-0.11 -26.37)"/><path class="cls-4" d="M262.2,416.09h8.24A1.46,1.46,0,0,0,272,414.9l.41-3.53a1.4,1.4,0,0,0-1.52-1.45h-8.08a1.48,1.48,0,0,0-1.52,1.14l-.57,3.53A1.4,1.4,0,0,0,262.2,416.09Z" transform="translate(-0.11 -26.37)"/><path class="cls-4" d="M368.45,409.92H357.1a.78.78,0,0,0-.83.71v4.75a.78.78,0,0,0,.83.71h11.26a.77.77,0,0,0,.82-.7l.09-4.75A.76.76,0,0,0,368.45,409.92Z" transform="translate(-0.11 -26.37)"/><polygon class="cls-4" points="382.36 383.55 370.82 383.55 370.7 389.72 382.48 389.72 382.36 383.55"/><path class="cls-4" d="M325.83,409.92H314.51a.77.77,0,0,0-.82.71v4.75a.77.77,0,0,0,.82.71h11.32a.77.77,0,0,0,.82-.71v-4.75A.77.77,0,0,0,325.83,409.92Z" transform="translate(-0.11 -26.37)"/><path class="cls-4" d="M395.4,410.13h-10a1.21,1.21,0,0,0-1.29,1.14l.07,3.94a1.22,1.22,0,0,0,1.3,1.1h10.05a1.21,1.21,0,0,0,1.3-1.16l-.16-3.94A1.23,1.23,0,0,0,395.4,410.13Z" transform="translate(-0.11 -26.37)"/><path class="cls-4" d="M339.3,409.92H329.12a.77.77,0,0,0-.82.71v4.75a.77.77,0,0,0,.82.71H339.3a.78.78,0,0,0,.83-.71v-4.75A.78.78,0,0,0,339.3,409.92Z" transform="translate(-0.11 -26.37)"/><path class="cls-4" d="M353.8,409.92H342.59a.77.77,0,0,0-.82.71v4.75a.77.77,0,0,0,.82.71H353.8a.78.78,0,0,0,.83-.71v-4.75A.78.78,0,0,0,353.8,409.92Z" transform="translate(-0.11 -26.37)"/><path class="cls-4" d="M410.35,403.14h-11a1.21,1.21,0,0,0-1.29,1.16l.12,3.12a1.23,1.23,0,0,0,1.3,1.08h11.14a1.21,1.21,0,0,0,1.3-1.2l-.28-3.12A1.24,1.24,0,0,0,410.35,403.14Z" transform="translate(-0.11 -26.37)"/><path class="cls-4" d="M382,425.1H287.24a.77.77,0,0,0-.82.67l-.58,8.05a.77.77,0,0,0,.83.76l95.43-.68a.76.76,0,0,0,.82-.72l-.14-7.38A.78.78,0,0,0,382,425.1Z" transform="translate(-0.11 -26.37)"/><path class="cls-4" d="M396,425.32h-10.3a1.21,1.21,0,0,0-1.3,1.13l.13,6.54a1.23,1.23,0,0,0,1.31,1.1l10.44-.07a1.22,1.22,0,0,0,1.29-1.16l-.27-6.46A1.23,1.23,0,0,0,396,425.32Z" transform="translate(-0.11 -26.37)"/><path class="cls-4" d="M283.19,425.1h-9.38a1.46,1.46,0,0,0-1.52,1.19l-.81,6.93a1.41,1.41,0,0,0,1.53,1.45l9.7-.07a1.44,1.44,0,0,0,1.51-1.23l.5-6.86A1.43,1.43,0,0,0,283.19,425.1Z" transform="translate(-0.11 -26.37)"/><path class="cls-4" d="M259,415l.57-3.53a1.4,1.4,0,0,0-1.51-1.5H243.61a1.5,1.5,0,0,0-1.5,1.06l-.81,3.54a1.39,1.39,0,0,0,1.5,1.57h14.64A1.47,1.47,0,0,0,259,415Z" transform="translate(-0.11 -26.37)"/><path class="cls-4" d="M412.31,425.32h-12a1.2,1.2,0,0,0-1.3,1.16l.27,6.43a1.23,1.23,0,0,0,1.3,1.08l12.33-.09a1.2,1.2,0,0,0,1.28-1.21l-.56-6.34A1.24,1.24,0,0,0,412.31,425.32Z" transform="translate(-0.11 -26.37)"/><path class="cls-4" d="M269.79,433.52l.81-7a1.42,1.42,0,0,0-1.52-1.46h-8.77a1.49,1.49,0,0,0-1.52,1.14l-1.13,7a1.4,1.4,0,0,0,1.52,1.5l9.1-.06A1.47,1.47,0,0,0,269.79,433.52Z" transform="translate(-0.11 -26.37)"/><path class="cls-4" d="M270,417.51h-8.42a1.49,1.49,0,0,0-1.52,1.14l-.57,3.53a1.4,1.4,0,0,0,1.52,1.5h8.58a1.47,1.47,0,0,0,1.53-1.18l.41-3.54A1.42,1.42,0,0,0,270,417.51Z" transform="translate(-0.11 -26.37)"/><path class="cls-4" d="M257.73,422.55l.57-3.54a1.4,1.4,0,0,0-1.51-1.5H241.87a1.49,1.49,0,0,0-1.5,1.07l-.81,3.53a1.39,1.39,0,0,0,1.51,1.57h15.14A1.47,1.47,0,0,0,257.73,422.55Z" transform="translate(-0.11 -26.37)"/><path class="cls-4" d="M255.56,425.1H240.14a1.49,1.49,0,0,0-1.5,1.07L237,433.34a1.41,1.41,0,0,0,1.52,1.58l15.92-.12a1.48,1.48,0,0,0,1.5-1.13l1.14-7.06A1.4,1.4,0,0,0,255.56,425.1Z" transform="translate(-0.11 -26.37)"/><path class="cls-4" d="M427.38,425.1H416.56a1.2,1.2,0,0,0-1.29,1.21l.56,6.31a1.24,1.24,0,0,0,1.3,1l11.2-.08a1.2,1.2,0,0,0,1.28-1.27l-.94-6.23A1.24,1.24,0,0,0,427.38,425.1Z" transform="translate(-0.11 -26.37)"/><path class="cls-4" d="M450.44,432.18l-.92-6a1.4,1.4,0,0,0-1.45-1.11H431.66a1.2,1.2,0,0,0-1.29,1.27l.94,6.2a1.25,1.25,0,0,0,1.29,1l16.56-.12A1.2,1.2,0,0,0,450.44,432.18Z" transform="translate(-0.11 -26.37)"/><path class="cls-4" d="M261.29,400.59l.13-.83a1.4,1.4,0,0,0-1.52-1.5l-13.65.08a1.48,1.48,0,0,0-1.49,1.06l-.17.75a1.38,1.38,0,0,0,1.5,1.57h13.68A1.47,1.47,0,0,0,261.29,400.59Z" transform="translate(-0.11 -26.37)"/><path class="cls-4" d="M414.59,418.72l.35,3.93a1.24,1.24,0,0,0,1.3,1h10.59a1.19,1.19,0,0,0,1.29-1.26l-.59-3.93a1.26,1.26,0,0,0-1.29-1H415.89A1.21,1.21,0,0,0,414.59,418.72Z" transform="translate(-0.11 -26.37)"/><path class="cls-4" d="M430,416.09h16.91a1.2,1.2,0,0,0,1.29-1.24l-.52-3.94a1.24,1.24,0,0,0-1.29-1h-17a1.19,1.19,0,0,0-1.29,1.26l.59,3.94A1.25,1.25,0,0,0,430,416.09Z" transform="translate(-0.11 -26.37)"/><path class="cls-4" d="M428.83,408.5h17.05a1.19,1.19,0,0,0,1.29-1.24l-.41-3.12a1.24,1.24,0,0,0-1.29-1H428.36a1.19,1.19,0,0,0-1.29,1.27l.47,3.12A1.25,1.25,0,0,0,428.83,408.5Z" transform="translate(-0.11 -26.37)"/><path class="cls-4" d="M314.51,401.72h11.32a.76.76,0,0,0,.82-.71v-2.4a.77.77,0,0,0-.82-.71L314.5,398a.77.77,0,0,0-.81.71V401A.76.76,0,0,0,314.51,401.72Z" transform="translate(-0.11 -26.37)"/><path class="cls-4" d="M357.1,401.72h11.53a.78.78,0,0,0,.83-.69l.05-2.64a.78.78,0,0,0-.83-.72l-11.59.06a.77.77,0,0,0-.82.71V401A.77.77,0,0,0,357.1,401.72Z" transform="translate(-0.11 -26.37)"/><path class="cls-4" d="M371.93,401.72h9.54a.76.76,0,0,0,.82-.72l-.05-2.7a.78.78,0,0,0-.83-.7l-9.44,0a.77.77,0,0,0-.82.7l0,2.65A.77.77,0,0,0,371.93,401.72Z" transform="translate(-0.11 -26.37)"/><path class="cls-4" d="M329.12,401.72H339.3a.77.77,0,0,0,.83-.71v-2.47a.78.78,0,0,0-.83-.71l-10.18.05a.78.78,0,0,0-.82.71V401A.77.77,0,0,0,329.12,401.72Z" transform="translate(-0.11 -26.37)"/><path class="cls-4" d="M342.59,401.72H353.8a.77.77,0,0,0,.83-.71v-2.55a.78.78,0,0,0-.83-.71l-11.21.06a.77.77,0,0,0-.82.71V401A.77.77,0,0,0,342.59,401.72Z" transform="translate(-0.11 -26.37)"/><path class="cls-4" d="M412.81,398.63l.18,2.06a1.24,1.24,0,0,0,1.29,1h9.25a1.19,1.19,0,0,0,1.29-1.26l-.32-2.11a1.26,1.26,0,0,0-1.3-1l-9.11.05A1.2,1.2,0,0,0,412.81,398.63Z" transform="translate(-0.11 -26.37)"/><path class="cls-4" d="M385.23,401.94H395a1.21,1.21,0,0,0,1.29-1.16l-.08-2a1.22,1.22,0,0,0-1.3-1.08l-9.7.05a1.21,1.21,0,0,0-1.28,1.14l0,1.91A1.22,1.22,0,0,0,385.23,401.94Z" transform="translate(-0.11 -26.37)"/><path class="cls-4" d="M399.21,401.72H410a1.19,1.19,0,0,0,1.29-1.2l-.18-2a1.24,1.24,0,0,0-1.3-1l-10.72.06a1.21,1.21,0,0,0-1.29,1.16l.08,2A1.23,1.23,0,0,0,399.21,401.72Z" transform="translate(-0.11 -26.37)"/><path class="cls-4" d="M289.78,401.72h6.83a1.43,1.43,0,0,0,1.53-1.29l0-1a1.43,1.43,0,0,0-1.54-1.34l-6.78,0a1.44,1.44,0,0,0-1.52,1.24l-.07,1A1.41,1.41,0,0,0,289.78,401.72Z" transform="translate(-0.11 -26.37)"/><path class="cls-4" d="M276.84,401.72h8.22a1.45,1.45,0,0,0,1.53-1.23l.07-1a1.44,1.44,0,0,0-1.54-1.41l-8.18.05a1.46,1.46,0,0,0-1.51,1.19l-.11.91A1.41,1.41,0,0,0,276.84,401.72Z" transform="translate(-0.11 -26.37)"/><path class="cls-4" d="M264.53,401.72h7.58a1.47,1.47,0,0,0,1.53-1.18l.1-.89a1.42,1.42,0,0,0-1.53-1.46l-7.56.05a1.45,1.45,0,0,0-1.5,1.13l-.14.85A1.4,1.4,0,0,0,264.53,401.72Z" transform="translate(-0.11 -26.37)"/><path class="cls-4" d="M272.85,407.31l.31-2.71a1.41,1.41,0,0,0-1.52-1.46h-7.77a1.48,1.48,0,0,0-1.52,1.14l-.44,2.72a1.4,1.4,0,0,0,1.52,1.5h7.89A1.47,1.47,0,0,0,272.85,407.31Z" transform="translate(-0.11 -26.37)"/><path class="cls-4" d="M244.54,408.5h14.13a1.48,1.48,0,0,0,1.52-1.14l.44-2.71a1.41,1.41,0,0,0-1.52-1.51h-14a1.49,1.49,0,0,0-1.5,1.07l-.62,2.71A1.39,1.39,0,0,0,244.54,408.5Z" transform="translate(-0.11 -26.37)"/><path class="cls-4" d="M300.6,401.72h10.62A.77.77,0,0,0,312,401v-2.32a.78.78,0,0,0-.83-.71l-10.57.06a.77.77,0,0,0-.82.7l0,2.26A.76.76,0,0,0,300.6,401.72Z" transform="translate(-0.11 -26.37)"/><path class="cls-4" d="M413.31,404.35l.28,3.12a1.24,1.24,0,0,0,1.3,1h9.66a1.19,1.19,0,0,0,1.29-1.26l-.47-3.12a1.26,1.26,0,0,0-1.29-1h-9.47A1.21,1.21,0,0,0,413.31,404.35Z" transform="translate(-0.11 -26.37)"/></g><path class="cls-13" d="M424,393.83h16.12c.92,0,1.62-.49,1.52-1.05l-.22-1.23c-.09-.48-.75-.84-1.53-.84l-16.14.06c-.92,0-1.63.51-1.51,1.07l.24,1.17C422.61,393.48,423.26,393.83,424,393.83Z" transform="translate(-0.11 -26.37)"/><path class="cls-13" d="M262.35,393l.13-.58c.12-.55-.58-1-1.48-1l-13.23,0a1.49,1.49,0,0,0-1.45.75l-.16.52c-.18.57.52,1.1,1.45,1.1h13.27C261.62,393.83,262.25,393.49,262.35,393Z" transform="translate(-0.11 -26.37)"/><path class="cls-13" d="M314,393.83h11c.44,0,.79-.22.79-.49v-1.68c0-.28-.36-.5-.8-.5l-11,0c-.44,0-.79.23-.79.5v1.64C313.15,393.61,313.51,393.83,314,393.83Z" transform="translate(-0.11 -26.37)"/><path class="cls-13" d="M355.24,393.83h11.18c.44,0,.79-.21.8-.48l0-1.85c0-.28-.36-.5-.8-.5l-11.24,0c-.44,0-.79.23-.79.5v1.8C354.44,393.61,354.8,393.83,355.24,393.83Z" transform="translate(-0.11 -26.37)"/><path class="cls-13" d="M369.61,393.83h9.26c.45,0,.8-.22.8-.5l-.05-1.89c0-.27-.37-.49-.81-.49l-9.15,0c-.43,0-.79.21-.79.48l-.05,1.86C368.81,393.61,369.17,393.83,369.61,393.83Z" transform="translate(-0.11 -26.37)"/><path class="cls-13" d="M328.12,393.83H338c.44,0,.79-.22.79-.49v-1.73c0-.28-.36-.5-.8-.5l-9.87,0c-.44,0-.79.22-.79.49v1.7C327.32,393.61,327.68,393.83,328.12,393.83Z" transform="translate(-0.11 -26.37)"/><path class="cls-13" d="M341.18,393.83h10.87c.44,0,.79-.22.79-.49v-1.79c0-.27-.36-.5-.8-.5l-10.87.05c-.44,0-.79.22-.79.49v1.75C340.38,393.61,340.74,393.83,341.18,393.83Z" transform="translate(-0.11 -26.37)"/><path class="cls-13" d="M409.25,391.67l.18,1.44c.05.41.59.72,1.25.72h9c.76,0,1.34-.41,1.24-.88l-.3-1.48c-.09-.39-.62-.68-1.26-.68l-8.83,0C409.77,390.83,409.19,391.21,409.25,391.67Z" transform="translate(-0.11 -26.37)"/><path class="cls-13" d="M382.51,394H392c.72,0,1.29-.37,1.26-.81l-.08-1.37c0-.42-.58-.76-1.26-.75l-9.4,0c-.7,0-1.26.36-1.25.8l0,1.33C381.27,393.64,381.83,394,382.51,394Z" transform="translate(-0.11 -26.37)"/><path class="cls-13" d="M396.07,393.83h10.49c.73,0,1.31-.38,1.25-.84l-.17-1.43c-.05-.41-.61-.72-1.27-.72l-10.39,0c-.71,0-1.27.37-1.25.81l.08,1.39C394.83,393.5,395.39,393.83,396.07,393.83Z" transform="translate(-0.11 -26.37)"/><path class="cls-13" d="M290,393.83h6.63c.81,0,1.47-.4,1.48-.9l0-.72c0-.52-.66-.94-1.49-.94l-6.58,0c-.78,0-1.43.38-1.48.86l-.06.69C288.43,393.38,289.11,393.83,290,393.83Z" transform="translate(-0.11 -26.37)"/><path class="cls-13" d="M277.43,393.83h8c.79,0,1.44-.38,1.49-.86l.06-.67c.06-.54-.63-1-1.49-1l-7.92,0c-.76,0-1.4.36-1.47.83l-.11.64C275.87,393.36,276.55,393.83,277.43,393.83Z" transform="translate(-0.11 -26.37)"/><path class="cls-13" d="M265.49,393.83h7.35c.77,0,1.4-.36,1.48-.83l.1-.62c.09-.55-.6-1-1.49-1l-7.32,0c-.74,0-1.36.35-1.46.8l-.13.59C263.89,393.34,264.59,393.83,265.49,393.83Z" transform="translate(-0.11 -26.37)"/><path class="cls-13" d="M300.46,393.83h10.3c.44,0,.79-.22.79-.49v-1.63c0-.27-.36-.49-.8-.49l-10.25,0c-.43,0-.78.22-.79.48l0,1.59C299.66,393.61,300,393.83,300.46,393.83Z" transform="translate(-0.11 -26.37)"/><path class="cls-14" d="M556.51,438.66c-4.87,1.65-14.44,2.51-25.76,2.23-13.84-.33-55.85-2.54-100.39-1.39-49.14,1.26-193,.69-199.83,0a24,24,0,0,1-9.17-2.94c-.2.83-.39,1.63-.58,2.4-1.18,5,3.2,9.61,9.07,9.62,34.36.07,136,.25,154.47,0,22.34-.33,70-2.62,87.08-2,12.64.48,54.83,1.32,75.8,1.73C553.21,448.44,557.73,443.7,556.51,438.66Z" transform="translate(-0.11 -26.37)"/></g><g id="Mouse"><path class="cls-7" d="M579.81,404.27s-2.17-7.47.81-9.87,20-2.49,28.57-.89,16.25,7.3,19.43,14.68,6,28.26-12.94,29.18C593.67,438.44,582.77,415.94,579.81,404.27Z" transform="translate(-0.11 -26.37)"/><path class="cls-10" d="M593.94,392.44a28.55,28.55,0,0,1,5,4.4c1.4,1.88,4.54,4.78,7.22,4s1-4.38-4.35-8.22C601.81,392.65,597.48,391.35,593.94,392.44Z" transform="translate(-0.11 -26.37)"/></g><g id="CPU"><rect class="cls-7" x="72.67" y="86.35" width="127.82" height="264.46" rx="7.86"/><path class="cls-14" d="M186.79,351.92h-101a6.74,6.74,0,0,1-6.73-6.73V127.11a6.74,6.74,0,0,1,6.73-6.73h101a6.74,6.74,0,0,1,6.73,6.73V345.19A6.74,6.74,0,0,1,186.79,351.92Zm-101-230.54a5.74,5.74,0,0,0-5.73,5.73V345.19a5.74,5.74,0,0,0,5.73,5.73h101a5.74,5.74,0,0,0,5.73-5.73V127.11a5.74,5.74,0,0,0-5.73-5.73Z" transform="translate(-0.11 -26.37)"/><path class="cls-14" d="M80.65,164.76H192.72a.75.75,0,0,0,0-1.5H80.65a.75.75,0,0,0,0,1.5Z" transform="translate(-0.11 -26.37)"/><path class="cls-14" d="M80.65,205.84H192.72a.75.75,0,0,0,0-1.5H80.65a.75.75,0,0,0,0,1.5Z" transform="translate(-0.11 -26.37)"/><circle class="cls-10" cx="137.83" cy="308.34" r="7.41" transform="translate(-171.37 145.83) rotate(-42.14)"/><rect class="cls-14" x="90.4" y="190.14" width="11.91" height="4.25"/><rect class="cls-14" x="110.12" y="190.14" width="72.93" height="4.25"/><rect class="cls-14" x="90.4" y="197.45" width="11.91" height="4.25"/><path class="cls-10" d="M159.08,228.08a2.69,2.69,0,1,1-2.69-2.69A2.69,2.69,0,0,1,159.08,228.08Z" transform="translate(-0.11 -26.37)"/><path class="cls-15" d="M170.79,228.08a2.69,2.69,0,1,1-2.69-2.69A2.69,2.69,0,0,1,170.79,228.08Z" transform="translate(-0.11 -26.37)"/><path class="cls-14" d="M182.62,228.08a2.69,2.69,0,1,1-2.69-2.69A2.69,2.69,0,0,1,182.62,228.08Z" transform="translate(-0.11 -26.37)"/></g><g id="Monitor"><rect class="cls-7" x="226.36" y="83.3" width="336.74" height="228.99" rx="4.01"/><path class="cls-7" d="M353.42,332.87l-12.64,39.18a3.68,3.68,0,0,0,3.5,4.81h101a3.68,3.68,0,0,0,3.47-4.91l-13.8-39.08Z" transform="translate(-0.11 -26.37)"/><rect class="cls-14" x="234.43" y="90.29" width="320.61" height="187.13"/><rect class="cls-10" x="240.36" y="95.09" width="308.75" height="182.33"/><polygon class="cls-14" points="351.86 312.29 437.29 312.29 441.05 322.95 348.42 322.95 351.86 312.29"/><path class="cls-15" d="M234.54,201.25s155.81,54.17,167.12,31-73.22-44.65-28-66.08,181.47-39.29,181.47-39.29V178S405.83,172.68,408.21,187s95.85,41.67,33.34,67.87-207,11.9-207,11.9Z" transform="translate(-0.11 -26.37)"/><rect class="cls-4" x="353.91" y="199.8" width="81.65" height="8.72" rx="3.99"/><circle class="cls-4" cx="394.73" cy="168.71" r="21.46"/><circle class="cls-10" cx="394.73" cy="162.97" r="8.68"/><path class="cls-10" d="M383.74,209.62a4.71,4.71,0,0,1,.91-7.81,21.94,21.94,0,0,1,10-2.47A24.79,24.79,0,0,1,407,202.13a4,4,0,0,1,.76,6.36c-2.76,2.54-7.26,5.63-12.89,5.62A17.83,17.83,0,0,1,383.74,209.62Z" transform="translate(-0.11 -26.37)"/></g></svg>