<svg data-v-423bf9ae="" xmlns="http://www.w3.org/2000/svg" viewBox="0 0 NaN 112" class="iconLeft"><!----><!----><!----><g data-v-423bf9ae="" id="cfcfef66-ac2d-4943-ba16-281ed92b0d5c" fill="#2e3034" transform="matrix(Infinity,0,0,Infinity,0,0)"><path d=""></path></g><!----><g data-v-423bf9ae="" id="c3270e94-5ed5-4a61-bf3e-836e79a82cd6" transform="matrix(1.1111111111111112,0,0,1.1111111111111112,-18.444444444444443,20.444444020589188)" stroke="none" fill="#488eff"><path d="M67 75.3h-6.7c-3.3 0-3.3 0-3.3 3.3s0 3.3 3.3 3.3H67c3.3 0 3.3 0 3.3-3.3s0-3.3-3.3-3.3zm-20 0h-6.7c-3.3 0-3.3 0-3.3 3.3s0 3.3 3.3 3.3H47c3.3 0 3.3 0 3.3-3.3s0-3.3-3.3-3.3zm40-6.6c-3.3 0-3.3 0-3.3 3.3v3.3h-3.3c-3.3 0-3.3 0-3.3 3.3s0 3.3 3.3 3.3H87c3.3 0 3.3 0 3.3-3.3V72c0-3.3 0-3.3-3.3-3.3zm-60 6.6h-3.3V72c0-3.3 0-3.3-3.3-3.3S17 68.7 17 72v6.7c0 3.3 0 3.3 3.3 3.3H27c3.3 0 3.3 0 3.3-3.3 0-3.4 0-3.4-3.3-3.4zm60-26.6c-3.3 0-3.3 0-3.3 3.3v6.7c0 3.3 0 3.3 3.3 3.3s3.3 0 3.3-3.3V52c0-3.3 0-3.3-3.3-3.3zM20.3 62c3.3 0 3.3 0 3.3-3.3V52c0-3.3 0-3.3-3.3-3.3S17 48.7 17 52v6.7c0 3.3 0 3.3 3.3 3.3zM87 28.7c-3.3 0-3.3 0-3.3 3.3v6.7c0 3.3 0 3.3 3.3 3.3s3.3 0 3.3-3.3V32c0-3.3 0-3.3-3.3-3.3zM20.3 42c3.3 0 3.3 0 3.3-3.3V32c0-3.3 0-3.3-3.3-3.3S17 28.7 17 32v6.7c0 3.3 0 3.3 3.3 3.3zM87 8.7h-6.7C77 8.7 77 8.7 77 12s0 3.3 3.3 3.3h3.3v3.3c0 3.3 0 3.3 3.3 3.3s3.3 0 3.3-3.3V12c.1-3.3.1-3.3-3.2-3.3zm-20 0h-6.7C57 8.7 57 8.7 57 12s0 3.3 3.3 3.3H67c3.3 0 3.3 0 3.3-3.3s0-3.3-3.3-3.3zm-20 0h-6.7C37 8.7 37 8.7 37 12s0 3.3 3.3 3.3H47c3.3 0 3.3 0 3.3-3.3s0-3.3-3.3-3.3zm-20 0h-6.7C17 8.7 17 8.7 17 12v6.7c0 3.3 0 3.3 3.3 3.3s3.3 0 3.3-3.3v-3.3H27c3.3 0 3.3 0 3.3-3.3s0-3.4-3.3-3.4zM117 52v-66.7c0-3.3 0-3.3-3.3-3.3H47c-3.3 0-3.3 0-3.3 3.3V52c0 3.3 0 3.3 3.3 3.3h66.7c3.3 0 3.3 0 3.3-3.3z"></path></g><!----></svg>