<svg xmlns="http://www.w3.org/2000/svg" data-v-423bf9ae="" class="iconLeft" viewBox="0.44 0.44 955.04 111.11"><!----><!----><!----><g data-v-423bf9ae="" id="d55130c1-7709-4a33-a6ad-9bbee7d3c231" fill="#2e3034" transform="matrix(5.940593835033989,0,0,5.940593835033989,124.16062321572679,6.308032453556784)"><path d="M7.54 3.82L7.54 10.78L2.57 3.82L1.17 3.82L1.17 13.15L2.61 13.15L2.61 6.21L7.58 13.15L8.97 13.15L8.97 3.82ZM14.22 13.34C16.30 13.34 17.75 11.81 17.75 9.84C17.75 7.89 16.30 6.36 14.22 6.36C12.10 6.36 10.66 7.89 10.66 9.84C10.66 11.81 12.10 13.34 14.22 13.34ZM14.22 12.13C12.99 12.13 12.13 11.14 12.13 9.84C12.13 8.56 12.99 7.57 14.22 7.57C15.43 7.57 16.29 8.56 16.29 9.84C16.29 11.14 15.43 12.13 14.22 12.13ZM27.49 13.34C28.61 13.34 29.60 13.02 30.41 12.45L29.62 11.27C29.05 11.74 28.32 12.02 27.49 12.02C25.42 12.02 24.12 10.37 24.12 8.46C24.12 6.55 25.42 4.91 27.49 4.91C28.32 4.91 29.05 5.19 29.62 5.66L30.41 4.48C29.60 3.91 28.61 3.59 27.49 3.59C24.54 3.59 22.57 5.75 22.57 8.46C22.57 11.19 24.54 13.34 27.49 13.34ZM34.94 13.34C37.03 13.34 38.47 11.81 38.47 9.84C38.47 7.89 37.03 6.36 34.94 6.36C32.83 6.36 31.38 7.89 31.38 9.84C31.38 11.81 32.83 13.34 34.94 13.34ZM34.94 12.13C33.72 12.13 32.86 11.14 32.86 9.84C32.86 8.56 33.72 7.57 34.94 7.57C36.15 7.57 37.01 8.56 37.01 9.84C37.01 11.14 36.15 12.13 34.94 12.13ZM44.79 3.24L44.79 7.32C44.28 6.72 43.55 6.36 42.60 6.36C40.88 6.36 39.51 7.69 39.51 9.84C39.51 12.00 40.88 13.31 42.60 13.31C43.59 13.31 44.36 12.91 44.87 12.25L45.05 13.15L46.20 13.15L46.20 3.24ZM42.93 12.12C41.74 12.12 40.95 11.14 40.95 9.84C40.95 8.55 41.74 7.55 42.93 7.55C44.17 7.55 44.98 8.55 44.98 9.84C44.98 11.14 44.17 12.12 42.93 12.12ZM54.25 9.70C54.25 7.73 52.92 6.36 51.00 6.36C49 6.36 47.59 7.89 47.59 9.84C47.59 11.80 48.99 13.31 51.16 13.31C52.31 13.31 53.27 12.92 53.87 12.25L52.89 11.46C52.47 11.94 51.90 12.19 51.14 12.19C49.90 12.19 49.18 11.33 49.07 10.15L54.25 10.15ZM51.00 7.50C52.03 7.50 52.70 8.12 52.85 9.17L49.13 9.17C49.34 8.17 50.02 7.50 51.00 7.50ZM65.99 5.07L65.99 3.82L59.63 3.82L59.63 13.15L65.99 13.15L65.99 11.90L61.12 11.90L61.12 9.07L65.26 9.07L65.26 7.90L61.12 7.90L61.12 5.07ZM74.90 6.36C73.73 6.36 73.15 6.80 72.73 7.41C72.30 6.66 71.58 6.36 70.82 6.36C70.06 6.36 69.37 6.72 68.99 7.38L68.83 6.53L67.59 6.53L67.59 13.15L69.01 13.15L69.01 9.26C69.10 8.15 69.62 7.57 70.47 7.57C71.37 7.57 71.74 8.31 71.74 9.39L71.74 13.15L73.15 13.15L73.15 9.60C73.15 8.30 73.67 7.57 74.59 7.57C75.51 7.57 75.88 8.31 75.88 9.38L75.88 13.15L77.29 13.15L77.29 9.28C77.29 7.12 76.15 6.36 74.90 6.36ZM80.97 13.34C81.90 13.34 82.78 12.94 83.23 12.31L83.45 13.15L84.64 13.15L84.64 9.19C84.64 7.31 83.66 6.36 81.71 6.36C80.73 6.36 79.92 6.61 79.29 7.10L79.92 8.08C80.35 7.70 80.92 7.51 81.56 7.51C82.61 7.51 83.23 8.01 83.23 8.90L83.23 9.45L83.05 9.39C80.18 8.31 78.60 9.79 78.60 11.21C78.60 12.45 79.65 13.34 80.97 13.34ZM81.39 12.25C80.56 12.25 80.09 11.72 80.09 11.11C80.09 10.34 80.98 9.57 83.04 10.30L83.23 10.35L83.23 10.54C83.23 11.62 82.35 12.25 81.39 12.25ZM87.18 5.26C87.69 5.26 88.10 4.86 88.10 4.36C88.10 3.86 87.69 3.46 87.18 3.46C86.67 3.46 86.26 3.86 86.26 4.36C86.26 4.86 86.67 5.26 87.18 5.26ZM86.49 13.15L87.88 13.15L87.88 6.53L86.49 6.53ZM89.86 13.15L91.28 13.15L91.28 3.24L89.86 3.24ZM101.89 7.99C102.94 7.71 103.50 7.04 103.50 6.05C103.50 4.67 102.38 3.82 100.52 3.82L97.08 3.82L97.08 13.15L100.95 13.15C103.03 13.15 104.33 12.12 104.33 10.47C104.33 9.11 103.45 8.21 101.89 7.99ZM102.04 6.17C102.04 7 101.44 7.51 100.44 7.51L98.57 7.51L98.57 4.93L100.48 4.93C101.49 4.93 102.04 5.37 102.04 6.17ZM100.76 12.05L98.57 12.05L98.57 8.72L100.71 8.72C101.98 8.72 102.78 9.32 102.78 10.37C102.80 11.40 102.02 12.05 100.76 12.05ZM110.15 6.53L110.15 10.57C110.03 11.74 109.24 12.12 108.50 12.12C107.48 12.12 107.04 11.39 107.04 10.31L107.04 6.53L105.63 6.53L105.63 10.63C105.63 12.69 106.95 13.33 108.11 13.33C109.04 13.33 109.75 12.95 110.15 12.37L110.32 13.15L111.56 13.15L111.56 6.53ZM114.17 5.26C114.68 5.26 115.09 4.86 115.09 4.36C115.09 3.86 114.68 3.46 114.17 3.46C113.66 3.46 113.25 3.86 113.25 4.36C113.25 4.86 113.66 5.26 114.17 5.26ZM113.49 13.15L114.87 13.15L114.87 6.53L113.49 6.53ZM116.86 13.15L118.27 13.15L118.27 3.24L116.86 3.24ZM125.01 3.24L125.01 7.32C124.50 6.72 123.77 6.36 122.82 6.36C121.10 6.36 119.73 7.69 119.73 9.84C119.73 12.00 121.10 13.31 122.82 13.31C123.81 13.31 124.59 12.91 125.10 12.25L125.27 13.15L126.42 13.15L126.42 3.24ZM123.16 12.12C121.96 12.12 121.17 11.14 121.17 9.84C121.17 8.55 121.96 7.55 123.16 7.55C124.40 7.55 125.20 8.55 125.20 9.84C125.20 11.14 124.40 12.12 123.16 12.12ZM134.47 9.70C134.47 7.73 133.15 6.36 131.22 6.36C129.22 6.36 127.81 7.89 127.81 9.84C127.81 11.80 129.21 13.31 131.38 13.31C132.53 13.31 133.50 12.92 134.09 12.25L133.12 11.46C132.69 11.94 132.12 12.19 131.37 12.19C130.13 12.19 129.40 11.33 129.30 10.15L134.47 10.15ZM131.22 7.50C132.26 7.50 132.93 8.12 133.07 9.17L129.35 9.17C129.56 8.17 130.24 7.50 131.22 7.50ZM138.95 6.36C138.16 6.36 137.64 6.74 137.26 7.41L137.08 6.53L135.86 6.53L135.86 13.15L137.27 13.15L137.27 9.70C137.27 8.62 137.84 7.66 138.88 7.66C139.11 7.66 139.33 7.70 139.52 7.79L139.94 6.58C139.77 6.47 139.39 6.36 138.95 6.36Z"/></g><!----><g data-v-423bf9ae="" id="a9341e32-3c52-4f49-82f2-309ccafcbaa3" transform="matrix(1.1111111111111112,0,0,1.1111111111111112,-18.444444444444443,20.444444020589188)" stroke="none" fill="#488eff"><path d="M67 75.3h-6.7c-3.3 0-3.3 0-3.3 3.3s0 3.3 3.3 3.3H67c3.3 0 3.3 0 3.3-3.3s0-3.3-3.3-3.3zm-20 0h-6.7c-3.3 0-3.3 0-3.3 3.3s0 3.3 3.3 3.3H47c3.3 0 3.3 0 3.3-3.3s0-3.3-3.3-3.3zm40-6.6c-3.3 0-3.3 0-3.3 3.3v3.3h-3.3c-3.3 0-3.3 0-3.3 3.3s0 3.3 3.3 3.3H87c3.3 0 3.3 0 3.3-3.3V72c0-3.3 0-3.3-3.3-3.3zm-60 6.6h-3.3V72c0-3.3 0-3.3-3.3-3.3S17 68.7 17 72v6.7c0 3.3 0 3.3 3.3 3.3H27c3.3 0 3.3 0 3.3-3.3 0-3.4 0-3.4-3.3-3.4zm60-26.6c-3.3 0-3.3 0-3.3 3.3v6.7c0 3.3 0 3.3 3.3 3.3s3.3 0 3.3-3.3V52c0-3.3 0-3.3-3.3-3.3zM20.3 62c3.3 0 3.3 0 3.3-3.3V52c0-3.3 0-3.3-3.3-3.3S17 48.7 17 52v6.7c0 3.3 0 3.3 3.3 3.3zM87 28.7c-3.3 0-3.3 0-3.3 3.3v6.7c0 3.3 0 3.3 3.3 3.3s3.3 0 3.3-3.3V32c0-3.3 0-3.3-3.3-3.3zM20.3 42c3.3 0 3.3 0 3.3-3.3V32c0-3.3 0-3.3-3.3-3.3S17 28.7 17 32v6.7c0 3.3 0 3.3 3.3 3.3zM87 8.7h-6.7C77 8.7 77 8.7 77 12s0 3.3 3.3 3.3h3.3v3.3c0 3.3 0 3.3 3.3 3.3s3.3 0 3.3-3.3V12c.1-3.3.1-3.3-3.2-3.3zm-20 0h-6.7C57 8.7 57 8.7 57 12s0 3.3 3.3 3.3H67c3.3 0 3.3 0 3.3-3.3s0-3.3-3.3-3.3zm-20 0h-6.7C37 8.7 37 8.7 37 12s0 3.3 3.3 3.3H47c3.3 0 3.3 0 3.3-3.3s0-3.3-3.3-3.3zm-20 0h-6.7C17 8.7 17 8.7 17 12v6.7c0 3.3 0 3.3 3.3 3.3s3.3 0 3.3-3.3v-3.3H27c3.3 0 3.3 0 3.3-3.3s0-3.4-3.3-3.4zM117 52v-66.7c0-3.3 0-3.3-3.3-3.3H47c-3.3 0-3.3 0-3.3 3.3V52c0 3.3 0 3.3 3.3 3.3h66.7c3.3 0 3.3 0 3.3-3.3z"/></g><!----></svg>